# xmcd
#
# Track frame offsets:
#	169
#	18945
#	38871
#	58640
#	79596
#	110914
#	131476
#	148759
#	167409
#	189962
#	209254
#	225910
#	241799
#	257996
#	305354
#
# Disc length: 4409 seconds
#
# Revision: 1
# Processed by: cddbd v1.5.1PL0 Copyright (c) Steve Scherf et al.
# Submitted via: audiograbber 1.83.01
#
DISCID=c011370f
DTITLE=Sergio Cammariere - Dalla Pace Del Mare Lontano
DYEAR=2003
DGENRE=Vocal
TTITLE0=Tutto Quello Che Un Uomo
TTITLE1=Sorella Mia
TTITLE2=Tempo Perduto
TTITLE3=Via Da Questo mare
TTITLE4=Cambiamenti Nel Mondo
TTITLE5=Dalla Pace Del mare Lontano
TTITLE6=Apri la Porta
TTITLE7=Canto nel vento
TTITLE8=Le Porte Del Sogno
TTITLE9=Il Mare
TTITLE10=Per Ricordarmi Di Te
TTITLE11=Paese Di Goal
TTITLE12=Vita D'Artista
TTITLE13=Cantautore Piccolino
TTITLE14=Dati Traccia
EXTD=
EXTT0=
EXTT1=
EXTT2=
EXTT3=
EXTT4=
EXTT5=
EXTT6=
EXTT7=
EXTT8=
EXTT9=
EXTT10=
EXTT11=
EXTT12=
EXTT13=
EXTT14=
PLAYORDER=
